<?xml version="1.0" encoding="utf-8" standalone="no"?>
<!DOCTYPE svg PUBLIC "-//W3C//DTD SVG 1.1//EN"
  "http://www.w3.org/Graphics/SVG/1.1/DTD/svg11.dtd">
<svg xmlns:xlink="http://www.w3.org/1999/xlink" width="360pt" height="288pt" viewBox="0 0 360 288" xmlns="http://www.w3.org/2000/svg" version="1.1">
 <metadata>
  <rdf:RDF xmlns:dc="http://purl.org/dc/elements/1.1/" xmlns:cc="http://creativecommons.org/ns#" xmlns:rdf="http://www.w3.org/1999/02/22-rdf-syntax-ns#">
   <cc:Work>
    <dc:type rdf:resource="http://purl.org/dc/dcmitype/StillImage"/>
    <dc:date>2025-07-17T13:44:55.710812</dc:date>
    <dc:format>image/svg+xml</dc:format>
    <dc:creator>
     <cc:Agent>
      <dc:title>Matplotlib v3.9.3, https://matplotlib.org/</dc:title>
     </cc:Agent>
    </dc:creator>
   </cc:Work>
  </rdf:RDF>
 </metadata>
 <defs>
  <style type="text/css">*{stroke-linejoin: round; stroke-linecap: butt}</style>
 </defs>
 <g id="figure_1">
  <g id="patch_1">
   <path d="M 0 288 
L 360 288 
L 360 0 
L 0 0 
z
" style="fill: #ffffff"/>
  </g>
  <g id="axes_1">
   <g id="patch_2">
    <path d="M 45 256.32 
L 324 256.32 
L 324 34.56 
L 45 34.56 
z
" style="fill: #ffffff"/>
   </g>
   <g id="matplotlib.axis_1">
    <g id="xtick_1">
     <g id="line2d_1">
      <path d="M 57.681818 256.32 
L 57.681818 34.56 
" clip-path="url(#pbef5783020)" style="fill: none; stroke-dasharray: 3.7,1.6; stroke-dashoffset: 0; stroke: #cccccc; stroke-opacity: 0.5"/>
     </g>
     <g id="text_1">
      <!-- 0.00 -->
      <g style="fill: #262626" transform="translate(44.322443 274.938125) scale(0.12 -0.12)">
       <defs>
        <path id="DejaVuSans-30" d="M 2034 4250 
Q 1547 4250 1301 3770 
Q 1056 3291 1056 2328 
Q 1056 1369 1301 889 
Q 1547 409 2034 409 
Q 2525 409 2770 889 
Q 3016 1369 3016 2328 
Q 3016 3291 2770 3770 
Q 2525 4250 2034 4250 
z
M 2034 4750 
Q 2819 4750 3233 4129 
Q 3647 3509 3647 2328 
Q 3647 1150 3233 529 
Q 2819 -91 2034 -91 
Q 1250 -91 836 529 
Q 422 1150 422 2328 
Q 422 3509 836 4129 
Q 1250 4750 2034 4750 
z
" transform="scale(0.015625)"/>
        <path id="DejaVuSans-2e" d="M 684 794 
L 1344 794 
L 1344 0 
L 684 0 
L 684 794 
z
" transform="scale(0.015625)"/>
       </defs>
       <use xlink:href="#DejaVuSans-30"/>
       <use xlink:href="#DejaVuSans-2e" x="63.623047"/>
       <use xlink:href="#DejaVuSans-30" x="95.410156"/>
       <use xlink:href="#DejaVuSans-30" x="159.033203"/>
      </g>
     </g>
    </g>
    <g id="xtick_2">
     <g id="line2d_2">
      <path d="M 121.090909 256.32 
L 121.090909 34.56 
" clip-path="url(#pbef5783020)" style="fill: none; stroke-dasharray: 3.7,1.6; stroke-dashoffset: 0; stroke: #cccccc; stroke-opacity: 0.5"/>
     </g>
     <g id="text_2">
      <!-- 0.25 -->
      <g style="fill: #262626" transform="translate(107.731534 274.938125) scale(0.12 -0.12)">
       <defs>
        <path id="DejaVuSans-32" d="M 1228 531 
L 3431 531 
L 3431 0 
L 469 0 
L 469 531 
Q 828 903 1448 1529 
Q 2069 2156 2228 2338 
Q 2531 2678 2651 2914 
Q 2772 3150 2772 3378 
Q 2772 3750 2511 3984 
Q 2250 4219 1831 4219 
Q 1534 4219 1204 4116 
Q 875 4013 500 3803 
L 500 4441 
Q 881 4594 1212 4672 
Q 1544 4750 1819 4750 
Q 2544 4750 2975 4387 
Q 3406 4025 3406 3419 
Q 3406 3131 3298 2873 
Q 3191 2616 2906 2266 
Q 2828 2175 2409 1742 
Q 1991 1309 1228 531 
z
" transform="scale(0.015625)"/>
        <path id="DejaVuSans-35" d="M 691 4666 
L 3169 4666 
L 3169 4134 
L 1269 4134 
L 1269 2991 
Q 1406 3038 1543 3061 
Q 1681 3084 1819 3084 
Q 2600 3084 3056 2656 
Q 3513 2228 3513 1497 
Q 3513 744 3044 326 
Q 2575 -91 1722 -91 
Q 1428 -91 1123 -41 
Q 819 9 494 109 
L 494 744 
Q 775 591 1075 516 
Q 1375 441 1709 441 
Q 2250 441 2565 725 
Q 2881 1009 2881 1497 
Q 2881 1984 2565 2268 
Q 2250 2553 1709 2553 
Q 1456 2553 1204 2497 
Q 953 2441 691 2322 
L 691 4666 
z
" transform="scale(0.015625)"/>
       </defs>
       <use xlink:href="#DejaVuSans-30"/>
       <use xlink:href="#DejaVuSans-2e" x="63.623047"/>
       <use xlink:href="#DejaVuSans-32" x="95.410156"/>
       <use xlink:href="#DejaVuSans-35" x="159.033203"/>
      </g>
     </g>
    </g>
    <g id="xtick_3">
     <g id="line2d_3">
      <path d="M 184.5 256.32 
L 184.5 34.56 
" clip-path="url(#pbef5783020)" style="fill: none; stroke-dasharray: 3.7,1.6; stroke-dashoffset: 0; stroke: #cccccc; stroke-opacity: 0.5"/>
     </g>
     <g id="text_3">
      <!-- 0.50 -->
      <g style="fill: #262626" transform="translate(171.140625 274.938125) scale(0.12 -0.12)">
       <use xlink:href="#DejaVuSans-30"/>
       <use xlink:href="#DejaVuSans-2e" x="63.623047"/>
       <use xlink:href="#DejaVuSans-35" x="95.410156"/>
       <use xlink:href="#DejaVuSans-30" x="159.033203"/>
      </g>
     </g>
    </g>
    <g id="xtick_4">
     <g id="line2d_4">
      <path d="M 247.909091 256.32 
L 247.909091 34.56 
" clip-path="url(#pbef5783020)" style="fill: none; stroke-dasharray: 3.7,1.6; stroke-dashoffset: 0; stroke: #cccccc; stroke-opacity: 0.5"/>
     </g>
     <g id="text_4">
      <!-- 0.75 -->
      <g style="fill: #262626" transform="translate(234.549716 274.938125) scale(0.12 -0.12)">
       <defs>
        <path id="DejaVuSans-37" d="M 525 4666 
L 3525 4666 
L 3525 4397 
L 1831 0 
L 1172 0 
L 2766 4134 
L 525 4134 
L 525 4666 
z
" transform="scale(0.015625)"/>
       </defs>
       <use xlink:href="#DejaVuSans-30"/>
       <use xlink:href="#DejaVuSans-2e" x="63.623047"/>
       <use xlink:href="#DejaVuSans-37" x="95.410156"/>
       <use xlink:href="#DejaVuSans-35" x="159.033203"/>
      </g>
     </g>
    </g>
    <g id="xtick_5">
     <g id="line2d_5">
      <path d="M 311.318182 256.32 
L 311.318182 34.56 
" clip-path="url(#pbef5783020)" style="fill: none; stroke-dasharray: 3.7,1.6; stroke-dashoffset: 0; stroke: #cccccc; stroke-opacity: 0.5"/>
     </g>
     <g id="text_5">
      <!-- 1.00 -->
      <g style="fill: #262626" transform="translate(297.958807 274.938125) scale(0.12 -0.12)">
       <defs>
        <path id="DejaVuSans-31" d="M 794 531 
L 1825 531 
L 1825 4091 
L 703 3866 
L 703 4441 
L 1819 4666 
L 2450 4666 
L 2450 531 
L 3481 531 
L 3481 0 
L 794 0 
L 794 531 
z
" transform="scale(0.015625)"/>
       </defs>
       <use xlink:href="#DejaVuSans-31"/>
       <use xlink:href="#DejaVuSans-2e" x="63.623047"/>
       <use xlink:href="#DejaVuSans-30" x="95.410156"/>
       <use xlink:href="#DejaVuSans-30" x="159.033203"/>
      </g>
     </g>
    </g>
    <g id="text_6">
     <!-- mean choice -->
     <g style="fill: #262626" transform="translate(139.754687 292.071563) scale(0.14 -0.14)">
      <defs>
       <path id="DejaVuSans-6d" d="M 3328 2828 
Q 3544 3216 3844 3400 
Q 4144 3584 4550 3584 
Q 5097 3584 5394 3201 
Q 5691 2819 5691 2113 
L 5691 0 
L 5113 0 
L 5113 2094 
Q 5113 2597 4934 2840 
Q 4756 3084 4391 3084 
Q 3944 3084 3684 2787 
Q 3425 2491 3425 1978 
L 3425 0 
L 2847 0 
L 2847 2094 
Q 2847 2600 2669 2842 
Q 2491 3084 2119 3084 
Q 1678 3084 1418 2786 
Q 1159 2488 1159 1978 
L 1159 0 
L 581 0 
L 581 3500 
L 1159 3500 
L 1159 2956 
Q 1356 3278 1631 3431 
Q 1906 3584 2284 3584 
Q 2666 3584 2933 3390 
Q 3200 3197 3328 2828 
z
" transform="scale(0.015625)"/>
       <path id="DejaVuSans-65" d="M 3597 1894 
L 3597 1613 
L 953 1613 
Q 991 1019 1311 708 
Q 1631 397 2203 397 
Q 2534 397 2845 478 
Q 3156 559 3463 722 
L 3463 178 
Q 3153 47 2828 -22 
Q 2503 -91 2169 -91 
Q 1331 -91 842 396 
Q 353 884 353 1716 
Q 353 2575 817 3079 
Q 1281 3584 2069 3584 
Q 2775 3584 3186 3129 
Q 3597 2675 3597 1894 
z
M 3022 2063 
Q 3016 2534 2758 2815 
Q 2500 3097 2075 3097 
Q 1594 3097 1305 2825 
Q 1016 2553 972 2059 
L 3022 2063 
z
" transform="scale(0.015625)"/>
       <path id="DejaVuSans-61" d="M 2194 1759 
Q 1497 1759 1228 1600 
Q 959 1441 959 1056 
Q 959 750 1161 570 
Q 1363 391 1709 391 
Q 2188 391 2477 730 
Q 2766 1069 2766 1631 
L 2766 1759 
L 2194 1759 
z
M 3341 1997 
L 3341 0 
L 2766 0 
L 2766 531 
Q 2569 213 2275 61 
Q 1981 -91 1556 -91 
Q 1019 -91 701 211 
Q 384 513 384 1019 
Q 384 1609 779 1909 
Q 1175 2209 1959 2209 
L 2766 2209 
L 2766 2266 
Q 2766 2663 2505 2880 
Q 2244 3097 1772 3097 
Q 1472 3097 1187 3025 
Q 903 2953 641 2809 
L 641 3341 
Q 956 3463 1253 3523 
Q 1550 3584 1831 3584 
Q 2591 3584 2966 3190 
Q 3341 2797 3341 1997 
z
" transform="scale(0.015625)"/>
       <path id="DejaVuSans-6e" d="M 3513 2113 
L 3513 0 
L 2938 0 
L 2938 2094 
Q 2938 2591 2744 2837 
Q 2550 3084 2163 3084 
Q 1697 3084 1428 2787 
Q 1159 2491 1159 1978 
L 1159 0 
L 581 0 
L 581 3500 
L 1159 3500 
L 1159 2956 
Q 1366 3272 1645 3428 
Q 1925 3584 2291 3584 
Q 2894 3584 3203 3211 
Q 3513 2838 3513 2113 
z
" transform="scale(0.015625)"/>
       <path id="DejaVuSans-20" transform="scale(0.015625)"/>
       <path id="DejaVuSans-63" d="M 3122 3366 
L 3122 2828 
Q 2878 2963 2633 3030 
Q 2388 3097 2138 3097 
Q 1578 3097 1268 2742 
Q 959 2388 959 1747 
Q 959 1106 1268 751 
Q 1578 397 2138 397 
Q 2388 397 2633 464 
Q 2878 531 3122 666 
L 3122 134 
Q 2881 22 2623 -34 
Q 2366 -91 2075 -91 
Q 1284 -91 818 406 
Q 353 903 353 1747 
Q 353 2603 823 3093 
Q 1294 3584 2113 3584 
Q 2378 3584 2631 3529 
Q 2884 3475 3122 3366 
z
" transform="scale(0.015625)"/>
       <path id="DejaVuSans-68" d="M 3513 2113 
L 3513 0 
L 2938 0 
L 2938 2094 
Q 2938 2591 2744 2837 
Q 2550 3084 2163 3084 
Q 1697 3084 1428 2787 
Q 1159 2491 1159 1978 
L 1159 0 
L 581 0 
L 581 4863 
L 1159 4863 
L 1159 2956 
Q 1366 3272 1645 3428 
Q 1925 3584 2291 3584 
Q 2894 3584 3203 3211 
Q 3513 2838 3513 2113 
z
" transform="scale(0.015625)"/>
       <path id="DejaVuSans-6f" d="M 1959 3097 
Q 1497 3097 1228 2736 
Q 959 2375 959 1747 
Q 959 1119 1226 758 
Q 1494 397 1959 397 
Q 2419 397 2687 759 
Q 2956 1122 2956 1747 
Q 2956 2369 2687 2733 
Q 2419 3097 1959 3097 
z
M 1959 3584 
Q 2709 3584 3137 3096 
Q 3566 2609 3566 1747 
Q 3566 888 3137 398 
Q 2709 -91 1959 -91 
Q 1206 -91 779 398 
Q 353 888 353 1747 
Q 353 2609 779 3096 
Q 1206 3584 1959 3584 
z
" transform="scale(0.015625)"/>
       <path id="DejaVuSans-69" d="M 603 3500 
L 1178 3500 
L 1178 0 
L 603 0 
L 603 3500 
z
M 603 4863 
L 1178 4863 
L 1178 4134 
L 603 4134 
L 603 4863 
z
" transform="scale(0.015625)"/>
      </defs>
      <use xlink:href="#DejaVuSans-6d"/>
      <use xlink:href="#DejaVuSans-65" x="97.412109"/>
      <use xlink:href="#DejaVuSans-61" x="158.935547"/>
      <use xlink:href="#DejaVuSans-6e" x="220.214844"/>
      <use xlink:href="#DejaVuSans-20" x="283.59375"/>
      <use xlink:href="#DejaVuSans-63" x="315.380859"/>
      <use xlink:href="#DejaVuSans-68" x="370.361328"/>
      <use xlink:href="#DejaVuSans-6f" x="433.740234"/>
      <use xlink:href="#DejaVuSans-69" x="494.921875"/>
      <use xlink:href="#DejaVuSans-63" x="522.705078"/>
      <use xlink:href="#DejaVuSans-65" x="577.685547"/>
     </g>
    </g>
   </g>
   <g id="matplotlib.axis_2">
    <g id="ytick_1">
     <g id="text_7">
      <!-- nine-three -->
      <g style="fill: #262626" transform="translate(-26.496875 57.599063) scale(0.12 -0.12)">
       <defs>
        <path id="DejaVuSans-2d" d="M 313 2009 
L 1997 2009 
L 1997 1497 
L 313 1497 
L 313 2009 
z
" transform="scale(0.015625)"/>
        <path id="DejaVuSans-74" d="M 1172 4494 
L 1172 3500 
L 2356 3500 
L 2356 3053 
L 1172 3053 
L 1172 1153 
Q 1172 725 1289 603 
Q 1406 481 1766 481 
L 2356 481 
L 2356 0 
L 1766 0 
Q 1100 0 847 248 
Q 594 497 594 1153 
L 594 3053 
L 172 3053 
L 172 3500 
L 594 3500 
L 594 4494 
L 1172 4494 
z
" transform="scale(0.015625)"/>
        <path id="DejaVuSans-72" d="M 2631 2963 
Q 2534 3019 2420 3045 
Q 2306 3072 2169 3072 
Q 1681 3072 1420 2755 
Q 1159 2438 1159 1844 
L 1159 0 
L 581 0 
L 581 3500 
L 1159 3500 
L 1159 2956 
Q 1341 3275 1631 3429 
Q 1922 3584 2338 3584 
Q 2397 3584 2469 3576 
Q 2541 3569 2628 3553 
L 2631 2963 
z
" transform="scale(0.015625)"/>
       </defs>
       <use xlink:href="#DejaVuSans-6e"/>
       <use xlink:href="#DejaVuSans-69" x="63.378906"/>
       <use xlink:href="#DejaVuSans-6e" x="91.162109"/>
       <use xlink:href="#DejaVuSans-65" x="154.541016"/>
       <use xlink:href="#DejaVuSans-2d" x="216.064453"/>
       <use xlink:href="#DejaVuSans-74" x="252.148438"/>
       <use xlink:href="#DejaVuSans-68" x="291.357422"/>
       <use xlink:href="#DejaVuSans-72" x="354.736328"/>
       <use xlink:href="#DejaVuSans-65" x="393.599609"/>
       <use xlink:href="#DejaVuSans-65" x="455.123047"/>
      </g>
     </g>
    </g>
    <g id="ytick_2">
     <g id="text_8">
      <!-- ten-four -->
      <g style="fill: #262626" transform="translate(-12.6275 94.559063) scale(0.12 -0.12)">
       <defs>
        <path id="DejaVuSans-66" d="M 2375 4863 
L 2375 4384 
L 1825 4384 
Q 1516 4384 1395 4259 
Q 1275 4134 1275 3809 
L 1275 3500 
L 2222 3500 
L 2222 3053 
L 1275 3053 
L 1275 0 
L 697 0 
L 697 3053 
L 147 3053 
L 147 3500 
L 697 3500 
L 697 3744 
Q 697 4328 969 4595 
Q 1241 4863 1831 4863 
L 2375 4863 
z
" transform="scale(0.015625)"/>
        <path id="DejaVuSans-75" d="M 544 1381 
L 544 3500 
L 1119 3500 
L 1119 1403 
Q 1119 906 1312 657 
Q 1506 409 1894 409 
Q 2359 409 2629 706 
Q 2900 1003 2900 1516 
L 2900 3500 
L 3475 3500 
L 3475 0 
L 2900 0 
L 2900 538 
Q 2691 219 2414 64 
Q 2138 -91 1772 -91 
Q 1169 -91 856 284 
Q 544 659 544 1381 
z
M 1991 3584 
L 1991 3584 
z
" transform="scale(0.015625)"/>
       </defs>
       <use xlink:href="#DejaVuSans-74"/>
       <use xlink:href="#DejaVuSans-65" x="39.208984"/>
       <use xlink:href="#DejaVuSans-6e" x="100.732422"/>
       <use xlink:href="#DejaVuSans-2d" x="164.111328"/>
       <use xlink:href="#DejaVuSans-66" x="200.195312"/>
       <use xlink:href="#DejaVuSans-6f" x="235.400391"/>
       <use xlink:href="#DejaVuSans-75" x="296.582031"/>
       <use xlink:href="#DejaVuSans-72" x="359.960938"/>
      </g>
     </g>
    </g>
    <g id="ytick_3">
     <g id="text_9">
      <!-- eleven-five -->
      <g style="fill: #262626" transform="translate(-31.06625 131.519063) scale(0.12 -0.12)">
       <defs>
        <path id="DejaVuSans-6c" d="M 603 4863 
L 1178 4863 
L 1178 0 
L 603 0 
L 603 4863 
z
" transform="scale(0.015625)"/>
        <path id="DejaVuSans-76" d="M 191 3500 
L 800 3500 
L 1894 563 
L 2988 3500 
L 3597 3500 
L 2284 0 
L 1503 0 
L 191 3500 
z
" transform="scale(0.015625)"/>
       </defs>
       <use xlink:href="#DejaVuSans-65"/>
       <use xlink:href="#DejaVuSans-6c" x="61.523438"/>
       <use xlink:href="#DejaVuSans-65" x="89.306641"/>
       <use xlink:href="#DejaVuSans-76" x="150.830078"/>
       <use xlink:href="#DejaVuSans-65" x="210.009766"/>
       <use xlink:href="#DejaVuSans-6e" x="271.533203"/>
       <use xlink:href="#DejaVuSans-2d" x="334.912109"/>
       <use xlink:href="#DejaVuSans-66" x="370.996094"/>
       <use xlink:href="#DejaVuSans-69" x="406.201172"/>
       <use xlink:href="#DejaVuSans-76" x="433.984375"/>
       <use xlink:href="#DejaVuSans-65" x="493.164062"/>
      </g>
     </g>
    </g>
    <g id="ytick_4">
     <g id="text_10">
      <!-- twelve-six -->
      <g style="fill: #262626" transform="translate(-25.23875 168.479062) scale(0.12 -0.12)">
       <defs>
        <path id="DejaVuSans-77" d="M 269 3500 
L 844 3500 
L 1563 769 
L 2278 3500 
L 2956 3500 
L 3675 769 
L 4391 3500 
L 4966 3500 
L 4050 0 
L 3372 0 
L 2619 2869 
L 1863 0 
L 1184 0 
L 269 3500 
z
" transform="scale(0.015625)"/>
        <path id="DejaVuSans-73" d="M 2834 3397 
L 2834 2853 
Q 2591 2978 2328 3040 
Q 2066 3103 1784 3103 
Q 1356 3103 1142 2972 
Q 928 2841 928 2578 
Q 928 2378 1081 2264 
Q 1234 2150 1697 2047 
L 1894 2003 
Q 2506 1872 2764 1633 
Q 3022 1394 3022 966 
Q 3022 478 2636 193 
Q 2250 -91 1575 -91 
Q 1294 -91 989 -36 
Q 684 19 347 128 
L 347 722 
Q 666 556 975 473 
Q 1284 391 1588 391 
Q 1994 391 2212 530 
Q 2431 669 2431 922 
Q 2431 1156 2273 1281 
Q 2116 1406 1581 1522 
L 1381 1569 
Q 847 1681 609 1914 
Q 372 2147 372 2553 
Q 372 3047 722 3315 
Q 1072 3584 1716 3584 
Q 2034 3584 2315 3537 
Q 2597 3491 2834 3397 
z
" transform="scale(0.015625)"/>
        <path id="DejaVuSans-78" d="M 3513 3500 
L 2247 1797 
L 3578 0 
L 2900 0 
L 1881 1375 
L 863 0 
L 184 0 
L 1544 1831 
L 300 3500 
L 978 3500 
L 1906 2253 
L 2834 3500 
L 3513 3500 
z
" transform="scale(0.015625)"/>
       </defs>
       <use xlink:href="#DejaVuSans-74"/>
       <use xlink:href="#DejaVuSans-77" x="39.208984"/>
       <use xlink:href="#DejaVuSans-65" x="120.996094"/>
       <use xlink:href="#DejaVuSans-6c" x="182.519531"/>
       <use xlink:href="#DejaVuSans-76" x="210.302734"/>
       <use xlink:href="#DejaVuSans-65" x="269.482422"/>
       <use xlink:href="#DejaVuSans-2d" x="331.005859"/>
       <use xlink:href="#DejaVuSans-73" x="367.089844"/>
       <use xlink:href="#DejaVuSans-69" x="419.189453"/>
       <use xlink:href="#DejaVuSans-78" x="446.972656"/>
      </g>
     </g>
    </g>
    <g id="ytick_5">
     <g id="text_11">
      <!-- seven-one -->
      <g style="fill: #262626" transform="translate(-27.111875 205.439062) scale(0.12 -0.12)">
       <use xlink:href="#DejaVuSans-73"/>
       <use xlink:href="#DejaVuSans-65" x="52.099609"/>
       <use xlink:href="#DejaVuSans-76" x="113.623047"/>
       <use xlink:href="#DejaVuSans-65" x="172.802734"/>
       <use xlink:href="#DejaVuSans-6e" x="234.326172"/>
       <use xlink:href="#DejaVuSans-2d" x="297.705078"/>
       <use xlink:href="#DejaVuSans-6f" x="335.664062"/>
       <use xlink:href="#DejaVuSans-6e" x="396.845703"/>
       <use xlink:href="#DejaVuSans-65" x="460.224609"/>
      </g>
     </g>
    </g>
    <g id="ytick_6">
     <g id="text_12">
      <!-- eight-two -->
      <g style="fill: #262626" transform="translate(-21.335 242.399062) scale(0.12 -0.12)">
       <defs>
        <path id="DejaVuSans-67" d="M 2906 1791 
Q 2906 2416 2648 2759 
Q 2391 3103 1925 3103 
Q 1463 3103 1205 2759 
Q 947 2416 947 1791 
Q 947 1169 1205 825 
Q 1463 481 1925 481 
Q 2391 481 2648 825 
Q 2906 1169 2906 1791 
z
M 3481 434 
Q 3481 -459 3084 -895 
Q 2688 -1331 1869 -1331 
Q 1566 -1331 1297 -1286 
Q 1028 -1241 775 -1147 
L 775 -588 
Q 1028 -725 1275 -790 
Q 1522 -856 1778 -856 
Q 2344 -856 2625 -561 
Q 2906 -266 2906 331 
L 2906 616 
Q 2728 306 2450 153 
Q 2172 0 1784 0 
Q 1141 0 747 490 
Q 353 981 353 1791 
Q 353 2603 747 3093 
Q 1141 3584 1784 3584 
Q 2172 3584 2450 3431 
Q 2728 3278 2906 2969 
L 2906 3500 
L 3481 3500 
L 3481 434 
z
" transform="scale(0.015625)"/>
       </defs>
       <use xlink:href="#DejaVuSans-65"/>
       <use xlink:href="#DejaVuSans-69" x="61.523438"/>
       <use xlink:href="#DejaVuSans-67" x="89.306641"/>
       <use xlink:href="#DejaVuSans-68" x="152.783203"/>
       <use xlink:href="#DejaVuSans-74" x="216.162109"/>
       <use xlink:href="#DejaVuSans-2d" x="255.371094"/>
       <use xlink:href="#DejaVuSans-74" x="291.455078"/>
       <use xlink:href="#DejaVuSans-77" x="330.664062"/>
       <use xlink:href="#DejaVuSans-6f" x="412.451172"/>
      </g>
     </g>
    </g>
    <g id="text_13">
     <!-- condition -->
     <g style="fill: #262626" transform="translate(-37.977812 177.805156) rotate(-90) scale(0.14 -0.14)">
      <defs>
       <path id="DejaVuSans-64" d="M 2906 2969 
L 2906 4863 
L 3481 4863 
L 3481 0 
L 2906 0 
L 2906 525 
Q 2725 213 2448 61 
Q 2172 -91 1784 -91 
Q 1150 -91 751 415 
Q 353 922 353 1747 
Q 353 2572 751 3078 
Q 1150 3584 1784 3584 
Q 2172 3584 2448 3432 
Q 2725 3281 2906 2969 
z
M 947 1747 
Q 947 1113 1208 752 
Q 1469 391 1925 391 
Q 2381 391 2643 752 
Q 2906 1113 2906 1747 
Q 2906 2381 2643 2742 
Q 2381 3103 1925 3103 
Q 1469 3103 1208 2742 
Q 947 2381 947 1747 
z
" transform="scale(0.015625)"/>
      </defs>
      <use xlink:href="#DejaVuSans-63"/>
      <use xlink:href="#DejaVuSans-6f" x="54.980469"/>
      <use xlink:href="#DejaVuSans-6e" x="116.162109"/>
      <use xlink:href="#DejaVuSans-64" x="179.541016"/>
      <use xlink:href="#DejaVuSans-69" x="243.017578"/>
      <use xlink:href="#DejaVuSans-74" x="270.800781"/>
      <use xlink:href="#DejaVuSans-69" x="310.009766"/>
      <use xlink:href="#DejaVuSans-6f" x="337.792969"/>
      <use xlink:href="#DejaVuSans-6e" x="398.974609"/>
     </g>
    </g>
   </g>
   <g id="line2d_6">
    <defs>
     <path id="m6a4569ee2d" d="M 0 3.5 
C 0.928211 3.5 1.81853 3.131218 2.474874 2.474874 
C 3.131218 1.81853 3.5 0.928211 3.5 0 
C 3.5 -0.928211 3.131218 -1.81853 2.474874 -2.474874 
C 1.81853 -3.131218 0.928211 -3.5 0 -3.5 
C -0.928211 -3.5 -1.81853 -3.131218 -2.474874 -2.474874 
C -3.131218 -1.81853 -3.5 -0.928211 -3.5 0 
C -3.5 0.928211 -3.131218 1.81853 -2.474874 2.474874 
C -1.81853 3.131218 -0.928211 3.5 0 3.5 
z
" style="stroke: #00008b; stroke-width: 1.5"/>
    </defs>
    <g clip-path="url(#pbef5783020)">
     <use xlink:href="#m6a4569ee2d" x="108.881705" y="53.04" style="fill: #00008b; stroke: #00008b; stroke-width: 1.5"/>
     <use xlink:href="#m6a4569ee2d" x="87.548419" y="90" style="fill: #00008b; stroke: #00008b; stroke-width: 1.5"/>
     <use xlink:href="#m6a4569ee2d" x="95.490966" y="126.96" style="fill: #00008b; stroke: #00008b; stroke-width: 1.5"/>
     <use xlink:href="#m6a4569ee2d" x="105.612789" y="163.92" style="fill: #00008b; stroke: #00008b; stroke-width: 1.5"/>
     <use xlink:href="#m6a4569ee2d" x="184.040514" y="200.88" style="fill: #00008b; stroke: #00008b; stroke-width: 1.5"/>
     <use xlink:href="#m6a4569ee2d" x="145.115471" y="237.84" style="fill: #00008b; stroke: #00008b; stroke-width: 1.5"/>
    </g>
   </g>
   <g id="line2d_7">
    <path d="M 85.644833 53.04 
L 139.424407 53.04 
" clip-path="url(#pbef5783020)" style="fill: none; stroke: #00008b; stroke-width: 2; stroke-linecap: round"/>
   </g>
   <g id="line2d_8">
    <path d="M 73.760552 90 
L 102.846026 90 
" clip-path="url(#pbef5783020)" style="fill: none; stroke: #00008b; stroke-width: 2; stroke-linecap: round"/>
   </g>
   <g id="line2d_9">
    <path d="M 79.146386 126.96 
L 113.612772 126.96 
" clip-path="url(#pbef5783020)" style="fill: none; stroke: #00008b; stroke-width: 2; stroke-linecap: round"/>
   </g>
   <g id="line2d_10">
    <path d="M 80.680414 163.92 
L 131.529778 163.92 
" clip-path="url(#pbef5783020)" style="fill: none; stroke: #00008b; stroke-width: 2; stroke-linecap: round"/>
   </g>
   <g id="line2d_11">
    <path d="M 153.645504 200.88 
L 215.36106 200.88 
" clip-path="url(#pbef5783020)" style="fill: none; stroke: #00008b; stroke-width: 2; stroke-linecap: round"/>
   </g>
   <g id="line2d_12">
    <path d="M 114.18877 237.84 
L 175.84525 237.84 
" clip-path="url(#pbef5783020)" style="fill: none; stroke: #00008b; stroke-width: 2; stroke-linecap: round"/>
   </g>
   <g id="line2d_13">
    <path d="M 184.5 256.32 
L 184.5 34.56 
" clip-path="url(#pbef5783020)" style="fill: none; stroke-dasharray: 5.55,2.4; stroke-dashoffset: 0; stroke: #000000; stroke-opacity: 0.5; stroke-width: 1.5"/>
   </g>
   <g id="patch_3">
    <path d="M 45 256.32 
L 45 34.56 
" style="fill: none; stroke: #262626; stroke-width: 1.25; stroke-linejoin: miter; stroke-linecap: square"/>
   </g>
   <g id="patch_4">
    <path d="M 45 256.32 
L 324 256.32 
" style="fill: none; stroke: #262626; stroke-width: 1.25; stroke-linejoin: miter; stroke-linecap: square"/>
   </g>
   <g id="PathCollection_1">
    <defs>
     <path id="ma8cbe03b93" d="M 0 2 
C 0.530406 2 1.03916 1.789267 1.414214 1.414214 
C 1.789267 1.03916 2 0.530406 2 0 
C 2 -0.530406 1.789267 -1.03916 1.414214 -1.414214 
C 1.03916 -1.789267 0.530406 -2 0 -2 
C -0.530406 -2 -1.03916 -1.789267 -1.414214 -1.414214 
C -1.789267 -1.03916 -2 -0.530406 -2 0 
C -2 0.530406 -1.789267 1.03916 -1.414214 1.414214 
C -1.03916 1.789267 -0.530406 2 0 2 
z
"/>
    </defs>
    <g clip-path="url(#pbef5783020)">
     <use xlink:href="#ma8cbe03b93" x="57.681818" y="53.04" style="fill: #808080; fill-opacity: 0.5"/>
     <use xlink:href="#ma8cbe03b93" x="152.795455" y="53.04" style="fill: #808080; fill-opacity: 0.5"/>
     <use xlink:href="#ma8cbe03b93" x="57.681818" y="57.24" style="fill: #808080; fill-opacity: 0.5"/>
     <use xlink:href="#ma8cbe03b93" x="57.681818" y="48.84" style="fill: #808080; fill-opacity: 0.5"/>
     <use xlink:href="#ma8cbe03b93" x="121.090909" y="53.04" style="fill: #808080; fill-opacity: 0.5"/>
     <use xlink:href="#ma8cbe03b93" x="89.386364" y="61.44" style="fill: #808080; fill-opacity: 0.5"/>
     <use xlink:href="#ma8cbe03b93" x="57.681818" y="61.44" style="fill: #808080; fill-opacity: 0.5"/>
     <use xlink:href="#ma8cbe03b93" x="247.909091" y="53.04" style="fill: #808080; fill-opacity: 0.5"/>
     <use xlink:href="#ma8cbe03b93" x="89.386364" y="53.04" style="fill: #808080; fill-opacity: 0.5"/>
     <use xlink:href="#ma8cbe03b93" x="57.681818" y="67.824" style="fill: #808080; fill-opacity: 0.5"/>
     <use xlink:href="#ma8cbe03b93" x="130.149351" y="53.04" style="fill: #808080; fill-opacity: 0.5"/>
     <use xlink:href="#ma8cbe03b93" x="89.386364" y="48.84" style="fill: #808080; fill-opacity: 0.5"/>
     <use xlink:href="#ma8cbe03b93" x="57.681818" y="44.64" style="fill: #808080; fill-opacity: 0.5"/>
     <use xlink:href="#ma8cbe03b93" x="89.386364" y="57.24" style="fill: #808080; fill-opacity: 0.5"/>
     <use xlink:href="#ma8cbe03b93" x="57.681818" y="65.64" style="fill: #808080; fill-opacity: 0.5"/>
     <use xlink:href="#ma8cbe03b93" x="57.681818" y="40.44" style="fill: #808080; fill-opacity: 0.5"/>
     <use xlink:href="#ma8cbe03b93" x="166.383117" y="53.04" style="fill: #808080; fill-opacity: 0.5"/>
     <use xlink:href="#ma8cbe03b93" x="93.915584" y="57.24" style="fill: #808080; fill-opacity: 0.5"/>
     <use xlink:href="#ma8cbe03b93" x="93.915584" y="48.84" style="fill: #808080; fill-opacity: 0.5"/>
     <use xlink:href="#ma8cbe03b93" x="57.681818" y="38.256" style="fill: #808080; fill-opacity: 0.5"/>
     <use xlink:href="#ma8cbe03b93" x="216.204545" y="53.04" style="fill: #808080; fill-opacity: 0.5"/>
     <use xlink:href="#ma8cbe03b93" x="93.915584" y="53.04" style="fill: #808080; fill-opacity: 0.5"/>
     <use xlink:href="#ma8cbe03b93" x="311.318182" y="53.04" style="fill: #808080; fill-opacity: 0.5"/>
    </g>
   </g>
   <g id="PathCollection_2">
    <g clip-path="url(#pbef5783020)">
     <use xlink:href="#ma8cbe03b93" x="89.386364" y="81.6" style="fill: #808080; fill-opacity: 0.5"/>
     <use xlink:href="#ma8cbe03b93" x="57.681818" y="90" style="fill: #808080; fill-opacity: 0.5"/>
     <use xlink:href="#ma8cbe03b93" x="57.681818" y="94.2" style="fill: #808080; fill-opacity: 0.5"/>
     <use xlink:href="#ma8cbe03b93" x="57.681818" y="85.8" style="fill: #808080; fill-opacity: 0.5"/>
     <use xlink:href="#ma8cbe03b93" x="93.915584" y="90" style="fill: #808080; fill-opacity: 0.5"/>
     <use xlink:href="#ma8cbe03b93" x="89.386364" y="98.4" style="fill: #808080; fill-opacity: 0.5"/>
     <use xlink:href="#ma8cbe03b93" x="57.681818" y="98.4" style="fill: #808080; fill-opacity: 0.5"/>
     <use xlink:href="#ma8cbe03b93" x="202.616883" y="90" style="fill: #808080; fill-opacity: 0.5"/>
     <use xlink:href="#ma8cbe03b93" x="57.681818" y="77.4" style="fill: #808080; fill-opacity: 0.5"/>
     <use xlink:href="#ma8cbe03b93" x="89.386364" y="90" style="fill: #808080; fill-opacity: 0.5"/>
     <use xlink:href="#ma8cbe03b93" x="89.386364" y="85.8" style="fill: #808080; fill-opacity: 0.5"/>
     <use xlink:href="#ma8cbe03b93" x="89.386364" y="94.2" style="fill: #808080; fill-opacity: 0.5"/>
     <use xlink:href="#ma8cbe03b93" x="57.681818" y="81.6" style="fill: #808080; fill-opacity: 0.5"/>
     <use xlink:href="#ma8cbe03b93" x="57.681818" y="102.6" style="fill: #808080; fill-opacity: 0.5"/>
     <use xlink:href="#ma8cbe03b93" x="142.227273" y="90" style="fill: #808080; fill-opacity: 0.5"/>
     <use xlink:href="#ma8cbe03b93" x="121.090909" y="94.2" style="fill: #808080; fill-opacity: 0.5"/>
     <use xlink:href="#ma8cbe03b93" x="57.681818" y="104.784" style="fill: #808080; fill-opacity: 0.5"/>
     <use xlink:href="#ma8cbe03b93" x="57.681818" y="75.216" style="fill: #808080; fill-opacity: 0.5"/>
     <use xlink:href="#ma8cbe03b93" x="57.681818" y="104.784" style="fill: #808080; fill-opacity: 0.5"/>
     <use xlink:href="#ma8cbe03b93" x="57.681818" y="75.216" style="fill: #808080; fill-opacity: 0.5"/>
     <use xlink:href="#ma8cbe03b93" x="121.090909" y="90" style="fill: #808080; fill-opacity: 0.5"/>
     <use xlink:href="#ma8cbe03b93" x="121.090909" y="85.8" style="fill: #808080; fill-opacity: 0.5"/>
     <use xlink:href="#ma8cbe03b93" x="130.149351" y="90" style="fill: #808080; fill-opacity: 0.5"/>
    </g>
   </g>
   <g id="PathCollection_3">
    <g clip-path="url(#pbef5783020)">
     <use xlink:href="#ma8cbe03b93" x="89.386364" y="139.56" style="fill: #808080; fill-opacity: 0.5"/>
     <use xlink:href="#ma8cbe03b93" x="57.681818" y="126.96" style="fill: #808080; fill-opacity: 0.5"/>
     <use xlink:href="#ma8cbe03b93" x="57.681818" y="131.16" style="fill: #808080; fill-opacity: 0.5"/>
     <use xlink:href="#ma8cbe03b93" x="57.681818" y="122.76" style="fill: #808080; fill-opacity: 0.5"/>
     <use xlink:href="#ma8cbe03b93" x="57.681818" y="135.36" style="fill: #808080; fill-opacity: 0.5"/>
     <use xlink:href="#ma8cbe03b93" x="89.386364" y="131.16" style="fill: #808080; fill-opacity: 0.5"/>
     <use xlink:href="#ma8cbe03b93" x="89.386364" y="122.76" style="fill: #808080; fill-opacity: 0.5"/>
     <use xlink:href="#ma8cbe03b93" x="152.795455" y="126.96" style="fill: #808080; fill-opacity: 0.5"/>
     <use xlink:href="#ma8cbe03b93" x="89.386364" y="126.96" style="fill: #808080; fill-opacity: 0.5"/>
     <use xlink:href="#ma8cbe03b93" x="57.681818" y="141.744" style="fill: #808080; fill-opacity: 0.5"/>
     <use xlink:href="#ma8cbe03b93" x="57.681818" y="114.36" style="fill: #808080; fill-opacity: 0.5"/>
     <use xlink:href="#ma8cbe03b93" x="152.795455" y="131.16" style="fill: #808080; fill-opacity: 0.5"/>
     <use xlink:href="#ma8cbe03b93" x="57.681818" y="118.56" style="fill: #808080; fill-opacity: 0.5"/>
     <use xlink:href="#ma8cbe03b93" x="57.681818" y="139.56" style="fill: #808080; fill-opacity: 0.5"/>
     <use xlink:href="#ma8cbe03b93" x="184.5" y="126.96" style="fill: #808080; fill-opacity: 0.5"/>
     <use xlink:href="#ma8cbe03b93" x="130.149351" y="126.96" style="fill: #808080; fill-opacity: 0.5"/>
     <use xlink:href="#ma8cbe03b93" x="89.386364" y="135.36" style="fill: #808080; fill-opacity: 0.5"/>
     <use xlink:href="#ma8cbe03b93" x="89.386364" y="118.56" style="fill: #808080; fill-opacity: 0.5"/>
     <use xlink:href="#ma8cbe03b93" x="121.090909" y="131.16" style="fill: #808080; fill-opacity: 0.5"/>
     <use xlink:href="#ma8cbe03b93" x="121.090909" y="126.96" style="fill: #808080; fill-opacity: 0.5"/>
     <use xlink:href="#ma8cbe03b93" x="93.915584" y="126.96" style="fill: #808080; fill-opacity: 0.5"/>
     <use xlink:href="#ma8cbe03b93" x="57.681818" y="112.176" style="fill: #808080; fill-opacity: 0.5"/>
     <use xlink:href="#ma8cbe03b93" x="184.5" y="131.16" style="fill: #808080; fill-opacity: 0.5"/>
    </g>
   </g>
   <g id="PathCollection_4">
    <g clip-path="url(#pbef5783020)">
     <use xlink:href="#ma8cbe03b93" x="57.681818" y="163.92" style="fill: #808080; fill-opacity: 0.5"/>
     <use xlink:href="#ma8cbe03b93" x="121.090909" y="168.12" style="fill: #808080; fill-opacity: 0.5"/>
     <use xlink:href="#ma8cbe03b93" x="57.681818" y="168.12" style="fill: #808080; fill-opacity: 0.5"/>
     <use xlink:href="#ma8cbe03b93" x="57.681818" y="159.72" style="fill: #808080; fill-opacity: 0.5"/>
     <use xlink:href="#ma8cbe03b93" x="57.681818" y="155.52" style="fill: #808080; fill-opacity: 0.5"/>
     <use xlink:href="#ma8cbe03b93" x="121.090909" y="159.72" style="fill: #808080; fill-opacity: 0.5"/>
     <use xlink:href="#ma8cbe03b93" x="121.090909" y="163.92" style="fill: #808080; fill-opacity: 0.5"/>
     <use xlink:href="#ma8cbe03b93" x="57.681818" y="172.32" style="fill: #808080; fill-opacity: 0.5"/>
     <use xlink:href="#ma8cbe03b93" x="57.681818" y="149.136" style="fill: #808080; fill-opacity: 0.5"/>
     <use xlink:href="#ma8cbe03b93" x="121.090909" y="155.52" style="fill: #808080; fill-opacity: 0.5"/>
     <use xlink:href="#ma8cbe03b93" x="57.681818" y="176.52" style="fill: #808080; fill-opacity: 0.5"/>
     <use xlink:href="#ma8cbe03b93" x="93.915584" y="163.92" style="fill: #808080; fill-opacity: 0.5"/>
     <use xlink:href="#ma8cbe03b93" x="57.681818" y="178.704" style="fill: #808080; fill-opacity: 0.5"/>
     <use xlink:href="#ma8cbe03b93" x="57.681818" y="151.32" style="fill: #808080; fill-opacity: 0.5"/>
     <use xlink:href="#ma8cbe03b93" x="159.136364" y="163.92" style="fill: #808080; fill-opacity: 0.5"/>
     <use xlink:href="#ma8cbe03b93" x="89.386364" y="163.92" style="fill: #808080; fill-opacity: 0.5"/>
     <use xlink:href="#ma8cbe03b93" x="57.681818" y="149.136" style="fill: #808080; fill-opacity: 0.5"/>
     <use xlink:href="#ma8cbe03b93" x="279.613636" y="163.92" style="fill: #808080; fill-opacity: 0.5"/>
     <use xlink:href="#ma8cbe03b93" x="184.5" y="163.92" style="fill: #808080; fill-opacity: 0.5"/>
     <use xlink:href="#ma8cbe03b93" x="279.613636" y="168.12" style="fill: #808080; fill-opacity: 0.5"/>
     <use xlink:href="#ma8cbe03b93" x="57.681818" y="178.704" style="fill: #808080; fill-opacity: 0.5"/>
     <use xlink:href="#ma8cbe03b93" x="57.681818" y="149.136" style="fill: #808080; fill-opacity: 0.5"/>
     <use xlink:href="#ma8cbe03b93" x="166.383117" y="163.92" style="fill: #808080; fill-opacity: 0.5"/>
    </g>
   </g>
   <g id="PathCollection_5">
    <g clip-path="url(#pbef5783020)">
     <use xlink:href="#ma8cbe03b93" x="152.795455" y="196.68" style="fill: #808080; fill-opacity: 0.5"/>
     <use xlink:href="#ma8cbe03b93" x="121.090909" y="205.08" style="fill: #808080; fill-opacity: 0.5"/>
     <use xlink:href="#ma8cbe03b93" x="121.090909" y="200.88" style="fill: #808080; fill-opacity: 0.5"/>
     <use xlink:href="#ma8cbe03b93" x="89.386364" y="200.88" style="fill: #808080; fill-opacity: 0.5"/>
     <use xlink:href="#ma8cbe03b93" x="152.795455" y="209.28" style="fill: #808080; fill-opacity: 0.5"/>
     <use xlink:href="#ma8cbe03b93" x="142.227273" y="200.88" style="fill: #808080; fill-opacity: 0.5"/>
     <use xlink:href="#ma8cbe03b93" x="184.5" y="200.88" style="fill: #808080; fill-opacity: 0.5"/>
     <use xlink:href="#ma8cbe03b93" x="311.318182" y="200.88" style="fill: #808080; fill-opacity: 0.5"/>
     <use xlink:href="#ma8cbe03b93" x="57.681818" y="200.88" style="fill: #808080; fill-opacity: 0.5"/>
     <use xlink:href="#ma8cbe03b93" x="275.084416" y="200.88" style="fill: #808080; fill-opacity: 0.5"/>
     <use xlink:href="#ma8cbe03b93" x="152.795455" y="205.08" style="fill: #808080; fill-opacity: 0.5"/>
     <use xlink:href="#ma8cbe03b93" x="279.613636" y="200.88" style="fill: #808080; fill-opacity: 0.5"/>
     <use xlink:href="#ma8cbe03b93" x="152.795455" y="200.88" style="fill: #808080; fill-opacity: 0.5"/>
     <use xlink:href="#ma8cbe03b93" x="238.850649" y="200.88" style="fill: #808080; fill-opacity: 0.5"/>
     <use xlink:href="#ma8cbe03b93" x="93.915584" y="200.88" style="fill: #808080; fill-opacity: 0.5"/>
     <use xlink:href="#ma8cbe03b93" x="279.613636" y="205.08" style="fill: #808080; fill-opacity: 0.5"/>
     <use xlink:href="#ma8cbe03b93" x="311.318182" y="205.08" style="fill: #808080; fill-opacity: 0.5"/>
     <use xlink:href="#ma8cbe03b93" x="130.149351" y="200.88" style="fill: #808080; fill-opacity: 0.5"/>
     <use xlink:href="#ma8cbe03b93" x="216.204545" y="200.88" style="fill: #808080; fill-opacity: 0.5"/>
     <use xlink:href="#ma8cbe03b93" x="57.681818" y="205.08" style="fill: #808080; fill-opacity: 0.5"/>
     <use xlink:href="#ma8cbe03b93" x="247.909091" y="205.08" style="fill: #808080; fill-opacity: 0.5"/>
     <use xlink:href="#ma8cbe03b93" x="247.909091" y="200.88" style="fill: #808080; fill-opacity: 0.5"/>
     <use xlink:href="#ma8cbe03b93" x="216.204545" y="205.08" style="fill: #808080; fill-opacity: 0.5"/>
    </g>
   </g>
   <g id="PathCollection_6">
    <g clip-path="url(#pbef5783020)">
     <use xlink:href="#ma8cbe03b93" x="130.149351" y="237.84" style="fill: #808080; fill-opacity: 0.5"/>
     <use xlink:href="#ma8cbe03b93" x="93.915584" y="237.84" style="fill: #808080; fill-opacity: 0.5"/>
     <use xlink:href="#ma8cbe03b93" x="57.681818" y="242.04" style="fill: #808080; fill-opacity: 0.5"/>
     <use xlink:href="#ma8cbe03b93" x="57.681818" y="237.84" style="fill: #808080; fill-opacity: 0.5"/>
     <use xlink:href="#ma8cbe03b93" x="152.795455" y="237.84" style="fill: #808080; fill-opacity: 0.5"/>
     <use xlink:href="#ma8cbe03b93" x="57.681818" y="233.64" style="fill: #808080; fill-opacity: 0.5"/>
     <use xlink:href="#ma8cbe03b93" x="89.386364" y="233.64" style="fill: #808080; fill-opacity: 0.5"/>
     <use xlink:href="#ma8cbe03b93" x="311.318182" y="237.84" style="fill: #808080; fill-opacity: 0.5"/>
     <use xlink:href="#ma8cbe03b93" x="89.386364" y="237.84" style="fill: #808080; fill-opacity: 0.5"/>
     <use xlink:href="#ma8cbe03b93" x="216.204545" y="242.04" style="fill: #808080; fill-opacity: 0.5"/>
     <use xlink:href="#ma8cbe03b93" x="89.386364" y="242.04" style="fill: #808080; fill-opacity: 0.5"/>
     <use xlink:href="#ma8cbe03b93" x="216.204545" y="237.84" style="fill: #808080; fill-opacity: 0.5"/>
     <use xlink:href="#ma8cbe03b93" x="57.681818" y="229.44" style="fill: #808080; fill-opacity: 0.5"/>
     <use xlink:href="#ma8cbe03b93" x="247.909091" y="237.84" style="fill: #808080; fill-opacity: 0.5"/>
     <use xlink:href="#ma8cbe03b93" x="57.681818" y="246.24" style="fill: #808080; fill-opacity: 0.5"/>
     <use xlink:href="#ma8cbe03b93" x="184.5" y="242.04" style="fill: #808080; fill-opacity: 0.5"/>
     <use xlink:href="#ma8cbe03b93" x="184.5" y="237.84" style="fill: #808080; fill-opacity: 0.5"/>
     <use xlink:href="#ma8cbe03b93" x="89.386364" y="229.44" style="fill: #808080; fill-opacity: 0.5"/>
     <use xlink:href="#ma8cbe03b93" x="184.5" y="233.64" style="fill: #808080; fill-opacity: 0.5"/>
     <use xlink:href="#ma8cbe03b93" x="89.386364" y="246.24" style="fill: #808080; fill-opacity: 0.5"/>
     <use xlink:href="#ma8cbe03b93" x="279.613636" y="237.84" style="fill: #808080; fill-opacity: 0.5"/>
     <use xlink:href="#ma8cbe03b93" x="152.795455" y="242.04" style="fill: #808080; fill-opacity: 0.5"/>
     <use xlink:href="#ma8cbe03b93" x="247.909091" y="242.04" style="fill: #808080; fill-opacity: 0.5"/>
    </g>
   </g>
  </g>
 </g>
 <defs>
  <clipPath id="pbef5783020">
   <rect x="45" y="34.56" width="279" height="221.76"/>
  </clipPath>
 </defs>
</svg>
